<svg xmlns="http://www.w3.org/2000/svg" viewBox="0 0 100 100" width="100" height="100">
  <!-- Circular brand background -->
  <circle cx="50" cy="50" r="46" fill="#B5441B" />
  
  <!-- Baby Onesie Graphic -->
  <path d="M 32 32 
           C 35 32, 37 28, 37 25 
           C 41 27, 45 28, 50 28 
           C 55 28, 59 27, 63 25 
           C 63 28, 65 32, 68 32 
           L 78 39 
           C 76 42, 72 43, 69 41 
           L 69 62 
           C 69 67, 64 70, 59 70 
           L 59 75 
           C 59 77, 57 78, 55 78 
           L 45 78 
           C 43 78, 41 77, 41 75 
           L 41 70 
           C 36 70, 31 67, 31 62 
           L 31 41 
           C 28 43, 24 42, 22 39 
           Z" 
        fill="#FDF6EE" 
        stroke="#2A1810" 
        stroke-width="3" 
        stroke-linejoin="round" 
        stroke-linecap="round" />
        
  <!-- Cute little central leaf/sprout design representing "Littleroot" -->
  <path d="M 50 58 C 50 58 50 48 50 44 C 50 44 54 44 56 47 C 56 47 50 51 50 58 Z" fill="#6B7C3A" />
  <path d="M 50 58 C 50 58 50 49 50 46 C 50 46 46 46 44 49 C 44 49 50 52 50 58 Z" fill="#6B7C3A" />
</svg>
